# xmcd CD database file
#
# Track frame offsets:
#	183
#	14665
#	25788
#	39558
#
# Disc length: 756 seconds
#
# Revision: 0
# Processed by: cddbd v1.4PL0 Copyright (c) Steve Scherf et al.
# Submitted via: CdAid 2001.05.15.01
#
DISCID=2902f204
DTITLE=The Cramps - All Women Are Bad
DYEAR=1900
DGENRE=
TTITLE0=All Women Are Bad
TTITLE1=King Of The Drapes
TTITLE2=Teenage Rage
TTITLE3=High School Hellcats
EXTD=
EXTT0=
EXTT1=
EXTT2=
EXTT3=
PLAYORDER=
